inDegrees=no
DataType=double
version=3
OpenSimVersion=4.4-2022-10-11-798caa840
endheader
time	elv_angle	shoulder_elv	shoulder_rot	elbow_flexion	pro_sup	deviation	flexion
2.4020851434	1.1289075613	0.6481069326	1.4430985451	1.4864064455	0.0000000000	0.0000000000	0.0000000000
2.4062554301	1.1288117170	0.6480349302	1.4430050850	1.4866278172	0.0000000000	0.0000000000	0.0000000000
2.4104257168	1.1289836168	0.6482473016	1.4431376457	1.4864158630	0.0000000000	0.0000000000	0.0000000000
2.4145960035	1.1288864613	0.6481692195	1.4430389404	1.4866359234	0.0000000000	0.0000000000	0.0000000000
2.4187662902	1.1290553808	0.6483783722	1.4431705475	1.4864261150	0.0000000000	0.0000000000	0.0000000000
2.4229365769	1.1289570332	0.6482939720	1.4430658817	1.4866449833	0.0000000000	0.0000000000	0.0000000000
2.4271068636	1.1291228533	0.6485006809	1.4431971312	1.4864379168	0.0000000000	0.0000000000	0.0000000000
2.4312771503	1.1290233135	0.6484095454	1.4430859089	1.4866551161	0.0000000000	0.0000000000	0.0000000000
2.4354474370	1.1291863918	0.6486147642	1.4432172775	1.4864513874	0.0000000000	0.0000000000	0.0000000000
2.4396177237	1.1290857792	0.6485159993	1.4430984259	1.4866667986	0.0000000000	0.0000000000	0.0000000000
2.4437880104	1.1292457581	0.6487207413	1.4432307482	1.4864674807	0.0000000000	0.0000000000	0.0000000000
2.4479582971	1.1291441917	0.6486133933	1.4431023598	1.4866809845	0.0000000000	0.0000000000	0.0000000000
2.4521285838	1.1293007135	0.6488188505	1.4432369471	1.4864879847	0.0000000000	0.0000000000	0.0000000000
2.4562988705	1.1291981936	0.6487012506	1.4430963993	1.4866994619	0.0000000000	0.0000000000	0.0000000000
2.4604691573	1.1293499470	0.6489087939	1.4432342052	1.4865157604	0.0000000000	0.0000000000	0.0000000000
2.4646394440	1.1292465925	0.6487789154	1.4430781603	1.4867253304	0.0000000000	0.0000000000	0.0000000000
2.4688097307	1.1293936968	0.6489880681	1.4432200193	1.4865576029	0.0000000000	0.0000000000	0.0000000000
2.4729800174	1.1291314363	0.6485979557	1.4428232908	1.4868470430	0.0000000000	0.0000000000	0.0000000000
2.4771503041	1.1291626692	0.6486136913	1.4428228140	1.4868655205	0.0000000000	0.0000000000	0.0000000000
2.4813205908	1.1292614937	0.6487224102	1.4428853989	1.4866575003	0.0000000000	0.0000000000	0.0000000000
2.4854908775	1.1292455196	0.6488561034	1.4429411888	1.4869122505	0.0000000000	0.0000000000	0.0000000000
2.4896611642	1.1290823221	0.6485916376	1.4426892996	1.4871139526	0.0000000000	0.0000000000	0.0000000000
2.4938314509	1.1291292906	0.6485573649	1.4426501989	1.4870223999	0.0000000000	0.0000000000	0.0000000000
2.4980017376	1.1293299198	0.6487582922	1.4427746534	1.4867216349	0.0000000000	0.0000000000	0.0000000000
2.5021720243	1.1292351484	0.6486558914	1.4426541328	1.4869219065	0.0000000000	0.0000000000	0.0000000000
2.5063423110	1.1294190884	0.6488580108	1.4427924156	1.4866547585	0.0000000000	0.0000000000	0.0000000000
2.5105125977	1.1293197870	0.6487388611	1.4426505566	1.4868599176	0.0000000000	0.0000000000	0.0000000000
2.5146828844	1.1294813156	0.6489528418	1.4428027868	1.4866487980	0.0000000000	0.0000000000	0.0000000000
2.5188531712	1.1293778419	0.6488083601	1.4426261187	1.4868564606	0.0000000000	0.0000000000	0.0000000000
2.5230234579	1.1295123100	0.6490302682	1.4427901506	1.4867092371	0.0000000000	0.0000000000	0.0000000000
2.5271937446	1.1294064522	0.6488743424	1.4425978661	1.4869186878	0.0000000000	0.0000000000	0.0000000000
2.5313640313	1.1295365095	0.6490924358	1.4427613020	1.4867762327	0.0000000000	0.0000000000	0.0000000000
2.5355343180	1.1294318438	0.6489436030	1.4425803423	1.4869838953	0.0000000000	0.0000000000	0.0000000000
2.5397046047	1.1295781136	0.6491551399	1.4427367449	1.4867987633	0.0000000000	0.0000000000	0.0000000000
2.5438748914	1.1294732094	0.6490033269	1.4425505400	1.4870074987	0.0000000000	0.0000000000	0.0000000000
2.5480451781	1.1296138763	0.6492139697	1.4427090883	1.4868322611	0.0000000000	0.0000000000	0.0000000000
2.5522154648	1.1295083761	0.6490608454	1.4425214529	1.4870415926	0.0000000000	0.0000000000	0.0000000000
2.5563857515	1.1296502352	0.6492685676	1.4426789284	1.4868599176	0.0000000000	0.0000000000	0.0000000000
2.5605560382	1.1295447350	0.6491158605	1.4424923658	1.4870690107	0.0000000000	0.0000000000	0.0000000000
2.5647263249	1.1296883821	0.6493211985	1.4426491261	1.4868797064	0.0000000000	0.0000000000	0.0000000000
2.5688966116	1.1295826435	0.6491674781	1.4424611330	1.4870893955	0.0000000000	0.0000000000	0.0000000000
2.5730668983	1.1297250986	0.6493710279	1.4426182508	1.4868998528	0.0000000000	0.0000000000	0.0000000000
2.5772371851	1.1296192408	0.6492171884	1.4424306154	1.4871096611	0.0000000000	0.0000000000	0.0000000000
2.5814074718	1.1297621727	0.6494188905	1.4425876141	1.4869155884	0.0000000000	0.0000000000	0.0000000000
2.5855777585	1.1296559572	0.6492645144	1.4423993826	1.4871257544	0.0000000000	0.0000000000	0.0000000000
2.5897480452	1.1297980547	0.6494646072	1.4425567389	1.4869309664	0.0000000000	0.0000000000	0.0000000000
2.5939183319	1.1296916008	0.6493099332	1.4423686266	1.4871413708	0.0000000000	0.0000000000	0.0000000000
2.5980886186	1.1298335791	0.6495086551	1.4425262213	1.4869441986	0.0000000000	0.0000000000	0.0000000000
2.6022589053	1.1297268867	0.6493534446	1.4423375130	1.4871548414	0.0000000000	0.0000000000	0.0000000000
2.6064291920	1.1298679113	0.6495507956	1.4424958229	1.4869570732	0.0000000000	0.0000000000	0.0000000000
2.6105994787	1.1297610998	0.6493952870	1.4423073530	1.4871677160	0.0000000000	0.0000000000	0.0000000000
2.6147697654	1.1299017668	0.6495913863	1.4424659014	1.4869686365	0.0000000000	0.0000000000	0.0000000000
2.6189400521	1.1297945976	0.6494355202	1.4422770739	1.4871793985	0.0000000000	0.0000000000	0.0000000000
2.6231103388	1.1299343109	0.6496304870	1.4424363375	1.4869800806	0.0000000000	0.0000000000	0.0000000000
2.6272806255	1.1298270226	0.6494743228	1.4422475100	1.4871910810	0.0000000000	0.0000000000	0.0000000000
2.6314509123	1.1299663782	0.6496681571	1.4424071312	1.4869904518	0.0000000000	0.0000000000	0.0000000000
2.6356211990	1.1298587322	0.6495116353	1.4422181845	1.4872016907	0.0000000000	0.0000000000	0.0000000000
2.6397914857	1.1299971342	0.6497043967	1.4423785210	1.4870010614	0.0000000000	0.0000000000	0.0000000000
2.6439617724	1.1298893690	0.6495476365	1.4421894550	1.4872121811	0.0000000000	0.0000000000	0.0000000000
2.6481320591	1.1300271749	0.6497393847	1.4423505068	1.4870107174	0.0000000000	0.0000000000	0.0000000000
2.6523023458	1.1299192905	0.6495822668	1.4421612024	1.4872220755	0.0000000000	0.0000000000	0.0000000000
2.6564726325	1.1300562620	0.6497731805	1.4423227310	1.4870204926	0.0000000000	0.0000000000	0.0000000000
2.6606429192	1.1300127506	0.6497592926	1.4423069954	1.4871588945	0.0000000000	0.0000000000	0.0000000000
2.6648132059	1.1299121380	0.6497774124	1.4423325062	1.4873886108	0.0000000000	0.0000000000	0.0000000000
2.6689834926	1.1298952103	0.6498109102	1.4423971176	1.4874908924	0.0000000000	0.0000000000	0.0000000000
2.6731537793	1.1298578978	0.6498242617	1.4424606562	1.4876013994	0.0000000000	0.0000000000	0.0000000000
2.6773240660	1.1298192739	0.6498296261	1.4425470829	1.4877179861	0.0000000000	0.0000000000	0.0000000000
2.6814943527	1.1297699213	0.6498269439	1.4426547289	1.4878565073	0.0000000000	0.0000000000	0.0000000000
2.6856646394	1.1297055483	0.6498150229	1.4427899122	1.4880287647	0.0000000000	0.0000000000	0.0000000000
2.6898349262	1.1296232939	0.6497928500	1.4429553747	1.4882415533	0.0000000000	0.0000000000	0.0000000000
2.6940052129	1.1295206547	0.6497595906	1.4431540966	1.4885008335	0.0000000000	0.0000000000	0.0000000000
2.6981754996	1.1293953657	0.6497141123	1.4433883429	1.4888116121	0.0000000000	0.0000000000	0.0000000000
2.7023457863	1.1292455196	0.6496551633	1.4436608553	1.4891782999	0.0000000000	0.0000000000	0.0000000000
2.7065160730	1.1290690899	0.6495817900	1.4439741373	1.4896054268	0.0000000000	0.0000000000	0.0000000000
2.7106863597	1.1288654804	0.6494930983	1.4443296194	1.4900950193	0.0000000000	0.0000000000	0.0000000000
2.7148566464	1.1286329031	0.6493878365	1.4447295666	1.4906508923	0.0000000000	0.0000000000	0.0000000000
